<svg width="19" height="9" viewBox="0 0 19 9" fill="none" xmlns="http://www.w3.org/2000/svg">
<path fill-rule="evenodd" clip-rule="evenodd" d="M0.935059 4.5C0.935059 4.22386 1.15892 4 1.43506 4L17.4351 4C17.7112 4 17.9351 4.22386 17.9351 4.5C17.9351 4.77614 17.7112 5 17.4351 5L1.43506 5C1.15892 5 0.935059 4.77614 0.935059 4.5Z" fill="#333333"/>
<path fill-rule="evenodd" clip-rule="evenodd" d="M13.5815 0.646447C13.7768 0.451184 14.0933 0.451184 14.2886 0.646447L18.1422 4.5L14.2886 8.35355C14.0933 8.54882 13.7768 8.54882 13.5815 8.35355C13.3862 8.15829 13.3862 7.84171 13.5815 7.64645L16.728 4.5L13.5815 1.35355C13.3862 1.15829 13.3862 0.841709 13.5815 0.646447Z" fill="#333333"/>
</svg>
